<svg xmlns="http://www.w3.org/2000/svg" viewBox="0 0 256 256" width="256" height="256" role="img" aria-label="Burung merpati">
  <defs>
    <linearGradient id="b" x1="0" y1="0" x2="1" y2="1">
      <stop offset="0" stop-color="#ffffff"/>
      <stop offset="1" stop-color="#d6e9ff"/>
    </linearGradient>
  </defs>
  <rect width="256" height="256" fill="none"/>
  <path d="M38 172c40-10 70-38 96-78 10-15 20-22 34-22 20 0 38 16 38 36 0 26-28 44-52 42 16 10 36 16 56 16-22 18-56 30-86 24-26-6-46-18-56-18-8 0-20 4-30 6z" fill="url(#b)" stroke="#1e90ff" stroke-width="3" stroke-linejoin="round"/>
  <path d="M80 108c-8-10-20-18-36-20 8 12 16 22 26 28" fill="none" stroke="#1e90ff" stroke-width="3" stroke-linecap="round"/>
  <circle cx="154" cy="82" r="4" fill="#1e90ff"/>
  <path d="M154 88c6 4 12 6 18 6-4 6-12 10-18 10" fill="#1e90ff"/>
</svg>